<svg version="1.1" id="Layer_1" xmlns="http://www.w3.org/2000/svg" xmlns:xlink="http://www.w3.org/1999/xlink" x="0px" y="0px"
	 width="100%" viewBox="0 0 1024 544" enable-background="new 0 0 1024 544" xml:space="preserve">
<path fill="#000000" opacity="1.000000" stroke="none" 
	d="
M399.032349,348.793182 
	C393.007721,348.102356 388.462372,344.314667 387.630890,339.100220 
	C386.193878,330.088409 383.703735,321.256012 383.695312,311.992615 
	C383.689178,305.228973 379.931305,299.562317 376.451782,294.146851 
	C368.583466,281.900726 363.062897,268.974426 361.501373,254.325699 
	C360.970490,249.345764 358.633972,244.558319 356.860687,238.838303 
	C352.780365,250.094696 351.779053,260.290222 352.583527,271.494995 
	C354.207977,294.122101 362.071442,315.712830 362.366760,338.439056 
	C362.570709,354.135468 361.806641,369.603943 357.580414,384.959320 
	C354.065521,397.730011 353.989594,411.062622 357.408295,424.009155 
	C360.775299,436.759979 358.661102,449.050598 355.762390,461.439911 
	C353.715118,470.190002 351.874908,478.997528 351.151886,487.980896 
	C350.276855,498.852173 350.842926,509.158661 359.972198,517.215271 
	C364.447510,521.164734 363.139679,525.587097 357.734619,528.183594 
	C353.843445,530.052795 349.790222,530.475952 345.586365,530.394226 
	C344.030640,530.364014 342.275818,530.186646 341.387299,529.088135 
	C336.577942,523.142334 331.001160,517.710693 330.840424,509.097229 
	C330.641022,498.415405 333.645752,488.020355 332.841705,477.252960 
	C332.179291,468.381866 330.432648,459.768402 328.339569,451.233978 
	C326.213806,442.566162 326.079407,434.084076 328.606232,425.612396 
	C329.749268,421.780273 329.850067,418.168915 328.694611,414.356995 
	C325.873413,405.049866 324.494141,395.508972 324.629974,385.775391 
	C324.810120,372.865021 321.420990,360.366333 320.254120,347.606903 
	C319.826477,342.930359 319.725922,338.306641 320.007904,333.645660 
	C320.083374,332.397949 319.991241,331.215851 318.281097,331.279358 
	C316.950409,331.328766 316.609955,332.205505 316.784454,333.332642 
	C318.685120,345.609375 315.590851,357.436310 313.603882,369.369598 
	C313.058014,372.648041 312.378357,375.980316 312.452393,379.272308 
	C312.728119,391.529205 311.154785,403.518768 307.989044,415.331024 
	C307.059967,418.797729 307.403564,422.162048 308.228973,425.664459 
	C310.270966,434.329468 310.905792,443.014679 308.358643,451.807007 
	C304.764771,464.212494 302.792938,477.001160 304.554749,489.800598 
	C305.554169,497.061523 304.313751,504.377136 306.183716,511.546814 
	C307.031616,514.797668 298.437286,527.559998 294.765045,529.374573 
	C290.305725,531.578003 280.010956,530.130920 276.292542,526.546326 
	C273.513763,523.867554 273.696594,520.255249 276.249878,518.078064 
	C286.836151,509.051178 286.732330,497.164062 285.650665,485.032471 
	C284.659882,473.920227 282.031006,463.067596 279.570770,452.210388 
	C277.358826,442.448822 277.622711,432.771332 279.717102,423.037415 
	C282.968842,407.924377 281.995636,393.054352 277.940979,378.108063 
	C272.430969,357.796814 273.659332,337.186493 276.918823,316.644165 
	C278.485107,306.772858 282.262878,297.091705 282.813538,287.334229 
	C283.688751,271.826324 289.351166,255.718277 279.939880,240.337051 
	C277.511658,245.185913 275.561951,250.197647 275.096771,255.399750 
	C273.748688,270.475922 267.589874,283.579956 259.515320,295.993805 
	C255.228180,302.584900 253.073639,309.600372 252.950439,317.613403 
	C252.822678,325.922211 250.251862,334.003479 248.217606,342.046448 
	C247.120667,346.383545 242.681656,347.593994 238.929260,349.100342 
	C233.929169,351.107483 231.022095,347.425415 227.777863,344.855072 
	C226.107635,343.531830 226.700409,341.488281 226.712494,339.690552 
	C226.735931,336.204163 228.597061,332.932465 227.995071,329.374878 
	C222.001694,328.159576 221.579605,327.235229 224.442642,321.891846 
	C227.119827,316.895294 229.783661,312.004700 234.566147,308.472900 
	C237.769180,306.107513 238.361084,301.951111 239.542343,298.317902 
	C243.063675,287.487366 242.510330,275.905487 245.682678,265.010010 
	C245.868378,264.372192 245.823196,263.612366 246.157822,263.080719 
	C254.934357,249.136749 253.876297,232.283524 259.691864,217.473465 
	C260.345123,215.809814 260.031769,214.225174 259.847534,212.567535 
	C259.016663,205.092728 260.193390,197.987503 263.678375,191.253052 
	C266.379669,186.033035 270.566711,182.373383 276.144714,181.273605 
	C283.010742,179.919876 288.740356,176.257477 294.903687,173.486267 
	C305.578125,168.686691 306.003296,162.604294 300.466919,151.331238 
	C297.830078,145.962143 294.411469,141.269135 299.122467,135.389069 
	C299.904480,134.413010 299.586487,132.498856 299.649628,131.012787 
	C300.086670,120.726044 307.656250,113.207924 317.947906,112.878479 
	C328.239746,112.549026 336.571960,120.070068 337.273956,130.499557 
	C337.454407,133.180298 337.946503,135.389862 339.515198,137.832672 
	C341.883026,141.519974 340.013458,145.537125 338.044159,149.111359 
	C337.166351,150.704575 335.860626,152.093750 335.164429,153.750092 
	C330.925598,163.834702 332.399231,168.781418 342.282196,173.728790 
	C348.104340,176.643341 353.795929,180.046173 360.576904,181.043884 
	C365.043976,181.701141 368.793854,184.512222 371.479370,188.432678 
	C375.888824,194.869797 378.172272,202.140762 377.144653,209.693008 
	C376.415070,215.054871 377.998505,219.444717 379.669556,224.055832 
	C380.754120,227.048569 382.124817,230.045197 381.856934,233.222961 
	C381.211487,240.879501 383.792847,247.629135 387.160370,254.204315 
	C391.975922,263.606873 393.051636,273.886444 394.331757,284.128418 
	C395.034912,289.754242 396.343567,295.248383 398.105072,300.633453 
	C399.367004,304.491180 401.238525,307.807281 404.652222,310.378174 
	C409.339996,313.908600 411.505432,319.428070 413.660095,324.575226 
	C415.796906,329.679718 411.135498,328.384064 408.503967,328.592346 
	C407.778168,331.826050 409.158600,334.643402 409.664856,337.540131 
	C410.277618,341.046509 411.306274,343.816437 406.654388,346.128143 
	C404.225586,347.335114 403.196564,351.242920 399.032349,348.793182 
M302.888916,127.631790 
	C301.200104,135.169479 303.539246,142.443588 304.155304,149.847244 
	C304.676666,156.112701 307.876007,160.414719 312.257507,164.133057 
	C315.453705,166.845459 319.439911,167.390152 322.959625,165.080231 
	C327.152374,162.328613 331.135895,158.765182 332.002777,153.612579 
	C333.156128,146.757538 334.661530,139.893509 334.613495,132.877579 
	C334.550323,123.649284 329.773346,117.608383 321.469025,116.089310 
	C312.986633,114.537651 306.589325,118.298569 302.888916,127.631790 
M293.679443,222.914993 
	C298.562347,224.337341 303.211029,222.803635 307.883301,221.744461 
	C312.244965,220.755707 314.326141,217.675903 314.500122,213.472122 
	C314.671387,209.333923 314.710205,205.127380 314.169830,201.034973 
	C312.817780,190.795761 311.552704,189.819641 301.161285,189.404404 
	C292.456604,189.056549 284.226288,196.083939 281.993652,205.770416 
	C280.471954,212.372437 284.747101,218.978622 293.679443,222.914993 
M349.467468,196.043900 
	C343.516144,189.282089 332.244812,187.087509 326.234894,191.520386 
	C321.447418,195.051605 320.464142,215.826416 324.895294,219.823425 
	C329.188934,223.696411 343.459229,224.128296 348.060669,220.524551 
	C356.395538,213.996872 356.954041,206.655502 349.467468,196.043900 
M298.652374,350.891357 
	C297.660187,340.986298 293.247620,332.127777 291.046539,321.641663 
	C282.769623,332.351471 285.025818,374.238922 293.560425,381.414032 
	C297.801422,371.869812 299.147369,362.009125 298.652374,350.891357 
M342.226807,335.591827 
	C336.728485,353.379547 337.600342,374.474243 344.091339,380.704620 
	C352.184509,370.091675 353.699158,332.280212 346.403839,320.867584 
	C345.065552,325.579285 343.753906,330.197235 342.226807,335.591827 
M322.173248,191.969406 
	C322.372406,189.259048 327.160126,189.091293 325.838104,185.060165 
	C323.867126,188.093811 321.707489,188.024063 318.508179,187.772110 
	C315.904755,187.567062 313.368622,188.004791 310.740540,186.267090 
	C316.557770,191.538986 316.858978,198.450867 317.569641,205.210693 
	C318.322632,212.372879 317.666595,219.126297 311.466400,224.257309 
	C319.165619,225.668472 320.260620,230.247971 315.229004,238.470886 
	C318.577789,242.819443 319.588837,248.805359 317.108948,253.311539 
	C315.785034,255.717255 316.075745,257.382324 317.140839,259.721680 
	C321.349854,268.965973 316.748993,275.529755 306.794647,275.120941 
	C304.258636,275.016754 302.198547,273.894958 299.974884,272.767822 
	C299.501678,274.983337 298.852753,276.754578 300.461029,278.291260 
	C307.356995,273.310822 314.538544,275.176880 318.628265,282.950470 
	C320.627228,277.071869 325.947662,274.301666 332.602844,276.107330 
	C338.703461,277.762482 335.594818,282.408386 335.423920,286.044708 
	C335.392792,286.707184 335.244904,287.363739 335.160156,288.024231 
	C334.749268,291.226196 335.825073,292.612122 339.604279,293.717010 
	C332.739807,286.660126 338.866730,278.353821 337.334869,270.793030 
	C334.131683,275.196686 325.448730,276.559967 321.414856,273.292603 
	C317.302765,269.961884 318.082123,261.418427 322.924103,256.747711 
	C317.104797,250.950272 316.930664,243.693726 322.644379,238.587265 
	C322.206299,238.127762 321.773773,237.672241 321.339233,237.218613 
	C318.320282,234.067047 317.792938,230.069489 319.673767,226.616226 
	C321.791229,222.728439 325.566650,224.953293 328.639648,225.888535 
	C330.203857,226.364578 331.643829,227.284241 333.097839,228.080353 
	C337.226044,230.340683 341.281830,228.030792 345.362122,227.833679 
	C345.816711,227.811722 346.153900,226.457367 345.221344,225.489471 
	C339.255920,226.561493 333.190277,226.424454 327.239319,224.372086 
	C323.249695,222.996124 320.646027,220.237030 319.984283,216.203232 
	C318.678741,208.245193 318.714294,200.299881 322.173248,191.969406 
M354.481140,193.092148 
	C356.649323,196.634109 358.799927,200.186996 360.990021,203.715378 
	C363.929840,208.451630 368.386780,211.364792 372.866211,214.711899 
	C376.721588,205.020737 372.699402,191.493362 364.987122,186.093262 
	C359.683960,182.380005 353.756104,182.343536 349.582489,186.064667 
	C350.356659,188.688675 352.607788,190.329773 354.481140,193.092148 
M282.786713,192.386688 
	C284.365753,190.326065 285.944763,188.265442 287.526215,186.201660 
	C281.413574,181.952164 275.234741,182.705078 269.661743,188.060638 
	C263.339294,194.136398 260.411255,208.131866 264.353058,214.299438 
	C265.160278,213.780396 265.957977,213.240570 266.780945,212.742493 
	C274.450867,208.100616 277.941833,200.168030 282.786713,192.386688 
M374.029572,237.440491 
	C371.746887,228.638489 370.479858,219.274216 361.390137,213.754486 
	C357.195557,229.126816 364.167511,248.797958 373.931885,252.962021 
	C375.219086,248.014114 374.850433,243.148987 374.029572,237.440491 
M276.154877,230.577057 
	C276.987274,225.044174 277.273987,219.531738 276.216644,213.821899 
	C266.291626,217.812454 258.774933,241.870544 263.729156,253.021118 
	C270.909485,247.407684 274.265717,239.904190 276.154877,230.577057 
M313.903931,280.760223 
	C311.365265,278.515289 308.118225,278.213959 305.556030,279.652252 
	C302.761322,281.221100 304.221039,284.503998 304.733826,286.955444 
	C306.332123,294.596710 308.354706,302.141602 311.320770,309.383942 
	C311.879120,310.747284 311.917694,312.759918 314.882355,313.067657 
	C316.484253,302.431976 315.144745,291.950897 313.903931,280.760223 
M321.833160,310.245880 
	C322.077057,311.492218 321.551758,312.879303 323.154449,314.836700 
	C327.331818,302.862457 332.311462,291.780640 333.306885,279.452118 
	C325.078979,278.055237 322.037506,279.301361 321.912842,284.538025 
	C321.715302,292.835358 320.753082,301.143707 321.833160,310.245880 
M341.535339,267.467560 
	C340.878113,272.402161 340.070953,277.323364 339.627441,282.277100 
	C339.408600,284.721405 337.742798,288.177399 340.899231,289.371429 
	C343.622375,290.401520 346.174255,288.057556 348.249146,286.086548 
	C349.612122,284.791809 350.451599,283.180756 350.554504,281.258453 
	C350.892883,274.936768 349.637756,268.856598 348.239990,262.712769 
	C345.074677,263.088196 343.147186,264.450134 341.535339,267.467560 
M296.672974,276.669983 
	C296.372406,274.206421 296.041595,271.746094 295.778290,269.278564 
	C295.363373,265.389893 293.059784,263.613770 288.771729,263.015198 
	C287.731567,269.260406 286.071625,275.169281 286.497498,281.302917 
	C286.811768,285.828888 290.097443,288.199982 294.097076,289.524292 
	C296.278595,290.246613 297.792419,289.342468 297.660767,286.906403 
	C297.491791,283.780243 297.049896,280.668793 296.672974,276.669983 
M330.521637,372.235443 
	C329.470612,378.313721 328.469421,384.439880 329.855316,390.550201 
	C330.462250,393.226135 330.297699,397.699158 334.228577,397.198761 
	C337.592743,396.770538 337.477356,392.558594 337.625000,389.663544 
	C338.045410,381.422241 334.309387,374.035095 332.754303,365.177795 
	C331.857239,367.983307 331.300537,369.724396 330.521637,372.235443 
M299.219330,387.351532 
	C299.102142,389.689056 299.223145,392.004761 300.102631,394.203949 
	C300.648193,395.568268 301.060852,397.217285 302.930145,397.259064 
	C304.525055,397.294739 305.249084,395.910767 305.691162,394.724426 
	C309.127563,385.502686 307.741302,376.490448 304.424255,367.517670 
	C301.649963,373.668793 300.547882,380.147644 299.219330,387.351532 
M340.558929,445.873840 
	C340.190338,435.302795 343.088593,425.308258 346.621552,414.825531 
	C342.016968,416.194275 338.889740,415.121399 336.642487,410.177582 
	C336.851837,414.747681 341.727875,416.315521 339.767456,420.430847 
	C335.699768,420.656433 335.426300,416.002716 332.407715,414.503601 
	C332.888397,420.181488 336.213776,424.353424 338.135651,429.077332 
	C339.316803,431.980530 341.482849,435.084961 339.885498,438.092529 
	C337.410248,442.753021 337.097473,447.067322 339.575806,451.461029 
	C339.837311,449.974884 340.124756,448.341492 340.558929,445.873840 
M401.160431,341.785400 
	C401.552124,342.534210 401.039276,343.770721 402.558990,344.132141 
	C402.225830,342.381134 401.943085,340.770721 401.608185,339.171265 
	C401.301270,337.705261 400.961914,336.244934 400.592834,334.793304 
	C400.226166,333.351318 399.636414,331.963623 400.501038,330.459106 
	C401.787933,328.219788 403.429413,331.508942 404.783325,330.194122 
	C404.628601,328.695068 405.227936,326.304016 403.560547,326.223816 
	C398.423950,325.976807 396.826630,320.598450 392.829132,319.329224 
	C386.983337,325.119415 388.503357,329.918243 395.112152,333.713501 
	C395.664062,333.249542 395.193604,331.091095 397.126312,331.356567 
	C398.713531,331.574585 399.059570,333.005249 399.374512,334.321259 
	C399.916534,336.586121 400.439301,338.855560 401.160431,341.785400 
M380.224335,260.618256 
	C380.377869,268.052277 382.230225,274.840302 387.652344,280.337585 
	C387.365967,270.722504 387.094482,261.178925 382.752686,252.041290 
	C380.049866,254.422333 380.488159,257.186707 380.224335,260.618256 
M321.841522,268.661560 
	C323.830048,271.712006 330.120361,273.064484 333.000885,271.060913 
	C335.265015,269.486115 335.524536,263.112885 333.162506,261.774536 
	C330.203156,260.097778 326.708710,259.544403 323.620819,260.870850 
	C320.681427,262.133484 321.381592,265.272278 321.841522,268.661560 
M251.740112,277.933563 
	C255.525085,269.807129 259.044525,261.650299 254.522766,251.573746 
	C249.822403,260.568848 249.339783,269.597870 248.763382,278.504395 
	C248.621368,280.699036 250.497528,280.472961 251.740112,277.933563 
M305.196991,271.628204 
	C307.170349,271.681091 309.153137,271.878113 311.114624,271.749664 
	C313.468872,271.595551 314.624969,269.962067 314.766418,267.774628 
	C314.920776,265.386841 315.795380,262.703522 313.418457,260.874756 
	C311.579163,259.459625 304.094025,260.435333 303.196899,262.429413 
	C301.828857,265.470215 301.270691,268.771179 305.196991,271.628204 
M352.952118,386.217712 
	C357.809570,372.649750 360.763824,358.901184 356.916077,344.510284 
	C357.227173,350.464355 357.028778,356.383698 355.623352,362.217194 
	C354.224030,368.025360 353.372253,373.965942 351.176208,379.580505 
	C349.917328,382.798920 349.807495,386.109253 350.838257,390.643036 
	C351.849365,388.622223 352.286438,387.748688 352.952118,386.217712 
M297.719696,431.089600 
	C300.341003,424.757874 304.412659,418.968811 305.429474,411.192627 
	C302.617767,414.792053 302.079773,419.577576 297.139191,420.129517 
	C296.175171,417.584778 298.344666,416.310150 298.089050,414.073151 
	C295.785858,415.781311 293.312988,416.033356 290.701202,415.251251 
	C291.721985,418.909637 292.685150,422.077057 293.478973,425.286377 
	C294.272949,428.496246 294.897644,431.747955 295.732605,435.610809 
	C296.540649,433.852936 297.024841,432.799652 297.719696,431.089600 
M338.114716,404.678436 
	C338.234497,405.662170 338.181702,406.707916 338.508606,407.617188 
	C339.278076,409.757477 339.840332,412.626678 342.654510,412.511536 
	C345.657257,412.388672 346.443970,409.591553 346.684723,407.059692 
	C347.197937,401.662842 346.884308,396.354309 343.957275,390.564667 
	C342.349609,395.769073 340.304260,399.852875 338.114716,404.678436 
M298.882996,404.686523 
	C297.171082,400.375702 294.479858,396.549377 293.235809,390.835632 
	C290.523102,396.103699 289.993835,400.333527 290.120667,404.649048 
	C290.213226,407.799438 290.255463,411.908447 294.022888,412.299896 
	C298.128632,412.726501 298.177704,408.465393 298.882996,404.686523 
M232.385712,328.946045 
	C232.838333,332.421539 234.760895,327.949127 236.245300,329.764771 
	C239.286011,333.484009 243.412659,330.635956 247.009171,330.245941 
	C248.503265,330.083923 248.818039,327.953125 248.164444,326.463745 
	C247.064117,323.956451 245.753159,321.541595 244.315964,318.656647 
	C240.206467,322.048584 236.368347,325.216522 232.385712,328.946045 
M352.636292,318.879578 
	C354.464233,322.358734 355.610840,326.223541 358.478058,329.870728 
	C357.919128,318.620941 354.530151,306.740845 349.870148,299.327209 
	C348.685181,306.004425 349.219330,312.252106 352.636292,318.879578 
M322.005890,251.408157 
	C324.296295,254.770966 328.020752,253.610046 331.147827,254.224899 
	C334.774200,254.937958 335.034088,252.578110 334.399689,249.978943 
	C333.946411,248.121841 332.398499,246.948181 330.900024,245.889282 
	C328.470123,244.172150 325.666962,241.739746 322.865479,243.306366 
	C320.419037,244.674408 321.392975,248.082596 322.005890,251.408157 
M278.586823,366.431702 
	C280.356506,373.470642 280.640564,381.017151 285.395966,387.538269 
	C286.188965,385.338043 280.156494,354.003906 278.815216,352.320740 
	C277.141693,356.837006 278.959778,361.276520 278.586823,366.431702 
M305.209839,246.708054 
	C303.604065,248.415527 301.549408,250.273682 302.895203,252.729492 
	C304.149170,255.017838 306.790283,253.774139 308.861176,253.842606 
	C309.191223,253.853516 309.523193,253.770264 309.855316,253.757706 
	C312.210815,253.668488 314.229065,252.955948 314.664734,250.339340 
	C315.037750,248.099411 316.000549,245.423721 313.865723,243.782440 
	C311.864990,242.244263 309.767822,243.926575 307.864288,244.885208 
	C307.126434,245.256821 306.463379,245.776917 305.209839,246.708054 
M286.999695,310.395020 
	C287.801208,306.582336 287.984009,302.774963 287.258087,298.185547 
	C280.219177,313.849426 278.117554,321.894897 279.949493,326.959351 
	C282.314301,321.425201 285.839966,316.910706 286.999695,310.395020 
M349.777710,444.429138 
	C351.053070,438.833221 351.012207,433.263031 349.996704,426.657745 
	C345.723114,435.000031 344.464020,448.294250 346.733795,456.891571 
	C348.388519,453.119690 349.118408,449.227081 349.777710,444.429138 
M249.839874,315.734650 
	C247.587753,310.812073 242.720581,309.960663 238.583252,310.450867 
	C233.832779,311.013733 230.920227,315.014893 229.412506,320.372345 
	C233.584259,319.168030 237.165054,318.375458 240.046722,315.562286 
	C243.655914,312.038879 245.731995,312.735626 247.235489,317.704346 
	C247.516556,318.633209 247.435272,319.733093 248.788071,319.978760 
	C250.279785,319.191467 249.746567,317.719452 249.839874,315.734650 
M328.091095,237.325806 
	C330.023865,238.012772 332.420593,240.147400 333.863770,237.739212 
	C335.282043,235.372665 334.078217,232.548294 331.923462,230.645554 
	C330.415222,229.313736 328.526703,228.555054 326.515839,228.267883 
	C324.846405,228.029480 322.794617,226.685699 321.872070,229.338531 
	C321.032013,231.754303 321.384888,233.995392 323.767853,235.416840 
	C324.897675,236.090820 326.198029,236.478897 328.091095,237.325806 
M402.844269,312.682373 
	C398.339050,309.154205 395.261658,309.188049 389.476624,312.860046 
	C387.621246,314.037750 386.653870,315.496979 387.979797,317.821472 
	C392.484283,312.562500 392.412231,312.658630 398.242981,317.029846 
	C400.829254,318.968750 403.905457,319.901489 407.388519,319.732574 
	C406.815308,316.730499 405.193390,314.878387 402.844269,312.682373 
M304.096100,238.491470 
	C307.448669,238.777374 310.025787,236.798569 312.761841,235.401276 
	C314.587769,234.468750 314.885101,232.589554 314.736328,230.675095 
	C314.638092,229.411377 314.147644,228.350342 312.757050,228.248825 
	C309.669403,228.023438 306.667053,228.799530 304.566711,230.967224 
	C302.748962,232.843231 301.585876,235.405869 304.096100,238.491470 
M290.683441,439.806213 
	C290.185303,435.341858 289.798401,430.849731 287.296356,425.525940 
	C285.584869,435.670258 286.347046,444.255280 289.770905,452.652496 
	C291.543243,448.757904 290.856415,444.724182 290.683441,439.806213 
M302.315063,433.149658 
	C300.421234,438.793274 301.085205,443.971741 305.366058,449.640015 
	C307.202850,442.088348 307.639709,435.671051 305.333588,429.057434 
	C303.308075,429.877869 303.151337,431.330261 302.315063,433.149658 
M330.339294,444.618042 
	C330.676361,446.746307 331.382874,448.593628 333.617737,446.179047 
	C337.098938,442.417969 335.904510,432.855164 331.431122,428.989227 
	C329.670959,433.930298 330.196472,438.886841 330.339294,444.618042 
M298.938660,256.476288 
	C299.972412,259.662201 293.908539,262.675262 298.955750,266.118835 
	C298.854095,262.775635 300.283081,260.270660 302.883850,258.500427 
	C297.998108,252.309372 298.293152,249.897049 305.100861,242.457809 
	C301.632751,243.394150 301.246887,239.140686 297.533112,239.261185 
	C299.589111,241.783096 300.200867,244.633484 299.016418,246.590332 
	C297.023438,249.882950 298.367889,252.694672 298.938660,256.476288 
M324.078308,322.769379 
	C324.569214,321.442017 325.569733,320.261505 325.222046,317.953552 
	C321.707367,322.316528 316.848724,320.250214 312.466309,321.369476 
	C313.056396,324.853943 314.711273,327.192413 317.937592,327.764771 
	C321.151581,328.334900 322.536865,325.821930 324.078308,322.769379 
M312.126953,170.128311 
	C312.532379,171.419312 312.937805,172.710327 313.443695,174.321228 
	C314.171295,172.695526 312.699005,170.870193 315.222260,169.945038 
	C317.762756,173.332642 316.223541,177.945129 318.360840,181.861221 
	C321.173004,177.569992 318.209198,171.563263 323.575165,168.613434 
	C320.109070,169.442184 316.891998,169.103943 313.683136,168.268967 
	C312.696716,168.012314 311.577423,167.894302 312.126953,170.128311 
M291.981537,522.340515 
	C291.373962,523.638000 290.188446,524.840637 291.259308,526.428284 
	C297.058716,525.754456 299.350159,520.949890 296.943512,514.107239 
	C294.528107,516.234558 294.285706,519.526489 291.981537,522.340515 
M310.811707,339.090179 
	C310.546387,342.209503 310.969513,345.133179 313.301117,348.305908 
	C315.377716,343.054443 314.109985,338.721741 313.294861,333.741455 
	C311.309357,335.401062 311.327850,336.965271 310.811707,339.090179 
M341.509979,261.637329 
	C337.430786,261.134430 338.459930,257.322998 337.242920,254.643219 
	C336.021729,256.547211 334.117462,257.081909 331.220245,258.291016 
	C336.855377,259.230743 337.208344,263.013763 338.174896,266.634766 
	C339.537354,264.876007 340.634247,263.460083 341.509979,261.637329 
M297.643494,228.791946 
	C300.873352,230.875000 302.602844,228.842209 305.099548,226.012360 
	C299.940704,226.071701 295.673859,226.498230 291.097839,225.540848 
	C291.757080,230.029175 294.928467,228.137451 297.643494,228.791946 
M341.104340,255.317169 
	C341.286957,256.326721 340.894257,258.447815 342.572113,257.594604 
	C345.496521,256.107605 347.949280,253.797012 348.833069,248.979935 
	C345.366760,251.182892 342.434692,251.720779 341.104340,255.317169 
M296.275604,444.927856 
	C296.464813,446.162415 296.037811,447.583588 297.329834,448.495697 
	C300.238373,446.007233 300.118286,442.964783 296.813446,438.939331 
	C295.690002,440.666046 296.318359,442.467621 296.275604,444.927856 
M292.389893,183.834686 
	C290.573669,184.875031 291.692078,186.573318 290.748016,188.319489 
	C294.448364,187.089722 297.456696,186.322067 301.225433,186.768143 
	C298.292816,184.397430 295.763763,183.559998 292.389893,183.834686 
M306.090149,345.296265 
	C304.731415,341.736237 303.372711,338.176239 302.013977,334.616211 
	C302.239014,338.895874 303.368500,342.849365 304.668488,346.745972 
	C305.063507,347.929993 305.009491,349.438232 306.470154,350.218414 
	C307.316956,348.748322 306.476776,347.370422 306.090149,345.296265 
M289.960358,251.267075 
	C288.821136,255.503082 292.177490,256.119324 294.910370,257.783173 
	C296.816193,252.868805 293.278198,252.319077 289.960358,251.267075 
M338.640137,178.196701 
	C340.482513,180.940079 342.715179,181.772949 345.912872,179.625702 
	C343.220856,177.012833 339.912109,176.097534 336.215057,173.978485 
	C337.200165,175.731918 337.738770,176.690659 338.640137,178.196701 
M340.509094,242.938904 
	C340.217651,244.222900 339.801697,246.181839 341.534882,246.039536 
	C344.415283,245.802994 346.484558,243.988831 346.935059,240.695541 
	C344.356415,239.948318 342.609955,241.115036 340.509094,242.938904 
M292.492249,245.076248 
	C293.920532,245.741180 296.250763,246.192062 296.065125,244.377533 
	C295.690338,240.714569 292.095276,240.863663 289.284607,240.011292 
	C288.975372,242.552124 290.479156,243.620651 292.492249,245.076248 
M298.315430,177.448013 
	C298.597809,176.090485 297.940491,175.431793 296.740540,175.961075 
	C294.616577,176.897903 292.607025,178.094055 290.160553,179.387344 
	C293.938751,181.706070 296.224243,180.795670 298.315430,177.448013 
M325.037720,338.064148 
	C322.832184,337.572968 323.002411,339.312988 323.016724,340.481018 
	C323.048340,343.056274 323.334839,345.628387 323.610687,349.518127 
	C325.213135,345.107971 326.233582,342.000336 325.037720,338.064148 
M333.220764,244.279282 
	C334.386414,244.892792 334.893890,246.813492 336.759949,246.161255 
	C337.141144,243.787689 337.504669,241.524155 337.868195,239.260635 
	C335.796082,241.779083 333.564240,243.086823 330.363281,242.207962 
	C331.160339,242.768005 331.957428,243.328049 333.220764,244.279282 
M333.554901,342.276642 
	C333.725616,340.702301 335.141205,339.227295 334.038513,336.724060 
	C332.178833,341.251373 330.136719,344.882019 330.440155,349.805695 
	C332.375946,347.454102 332.471497,345.060455 333.554901,342.276642 
M373.622833,225.563477 
	C373.886749,225.867722 374.097290,226.557205 374.529541,225.707016 
	C374.597076,225.574203 374.527222,225.378571 374.560394,225.220245 
	C375.515564,220.662476 372.787903,218.236511 368.779022,215.482391 
	C370.947540,219.061295 372.498688,221.924301 373.622833,225.563477 
M263.351746,224.174637 
	C264.733337,221.466232 266.114899,218.757843 267.535889,215.972229 
	C263.712677,218.070297 261.315308,220.824066 262.431793,225.445267 
	C262.605652,225.333405 262.806000,225.246857 262.944733,225.101486 
	C263.050446,224.990677 263.077972,224.805267 263.351746,224.174637 
M344.262726,231.452393 
	C341.358612,231.032471 338.980347,231.205414 339.826019,235.562531 
	C342.239288,234.985031 344.570160,234.889725 344.262726,231.452393 
M298.645081,297.161865 
	C296.976288,300.168732 299.583740,301.145569 301.392242,302.538910 
	C301.206573,300.461731 302.449707,297.882904 298.645081,297.161865 
M334.708679,301.526215 
	C334.622040,302.148682 334.535400,302.771179 334.310516,304.386597 
	C336.715698,301.902252 338.350433,300.114014 338.882355,297.282623 
	C335.160767,296.347656 335.549530,299.193787 334.708679,301.526215 
M343.806091,522.233337 
	C343.192749,520.601257 342.974609,518.623779 340.597137,518.455750 
	C339.800964,523.606506 340.246368,524.204773 343.806091,522.233337 
M353.224609,330.004303 
	C354.076599,331.823120 352.441559,334.376953 354.848938,335.795746 
	C357.015350,333.136627 356.309570,330.597046 353.224609,330.004303 
M305.674561,183.375244 
	C306.981812,181.304749 305.735474,179.924316 304.411133,178.016510 
	C303.144501,180.437408 300.069122,182.565414 305.674561,183.375244 
M296.314026,235.546417 
	C297.119751,234.116913 297.420929,232.536240 295.768219,231.712128 
	C294.408875,231.034302 292.909729,231.412033 292.164154,233.087219 
	C293.072876,234.482117 294.357300,235.174774 296.314026,235.546417 
M344.690247,185.724426 
	C343.134796,183.213303 341.127594,184.010742 338.294800,184.769104 
	C340.695953,186.691528 342.378326,188.042999 344.690247,185.724426 
z"/>
<path fill="#000000" opacity="1.000000" stroke="none" 
	d="
M827.823853,307.050537 
	C832.840637,311.565430 836.821411,316.407806 839.467896,322.285889 
	C840.194153,323.899017 842.022278,325.260559 841.053528,327.259155 
	C839.882874,329.674316 837.567627,328.342346 835.615112,328.465698 
	C834.990601,331.102203 836.018311,333.536469 836.860535,335.734344 
	C839.181580,341.791321 835.953125,345.673035 832.011536,349.206940 
	C829.291992,351.645142 824.972534,349.145874 823.721130,348.454926 
	C820.056396,346.431244 814.951477,344.988739 814.346008,338.992340 
	C813.464172,330.259247 810.335205,321.867218 810.663147,312.865234 
	C810.881531,306.869415 807.667786,301.695557 804.698792,296.662933 
	C802.160583,292.360565 799.457703,288.155060 796.808777,283.918457 
	C791.335938,275.165222 790.240662,265.184143 788.750000,255.310440 
	C787.976440,250.186340 785.908325,245.569473 782.907715,240.131943 
	C779.401428,251.608582 778.810486,262.086243 779.329224,273.228638 
	C780.227600,292.525024 786.404480,310.759644 788.496094,329.739838 
	C790.487122,347.808014 789.418762,365.540955 784.683044,383.176361 
	C780.822998,397.550507 781.434326,412.168915 784.173645,426.764679 
	C786.682251,440.131439 784.210754,453.230591 781.712524,466.360962 
	C779.886047,475.960510 776.870361,485.392151 777.302612,495.375885 
	C777.614502,502.579559 778.319214,509.130554 786.250244,512.588806 
	C789.973694,514.212341 789.284668,518.868469 785.129578,520.602844 
	C780.231262,522.647522 775.174744,524.464050 770.026062,525.721497 
	C762.984619,527.441162 758.776062,523.882629 758.649597,516.659485 
	C758.498840,508.045471 758.574951,499.498596 759.439636,490.846497 
	C760.716675,478.068237 758.548279,465.255402 756.107422,452.672943 
	C754.523071,444.506470 753.967102,436.526245 756.126099,428.450012 
	C757.270813,424.167847 757.305115,419.792603 756.117920,415.601685 
	C752.689575,403.498993 751.396912,391.093353 750.835388,378.625366 
	C750.509827,371.395203 748.299377,364.558228 747.458740,357.456024 
	C746.907959,352.803741 746.618286,348.166351 746.814331,343.496521 
	C747.116638,336.292419 747.722900,335.882904 754.336914,338.259399 
	C749.620789,335.396576 747.687500,330.674683 745.647095,325.269989 
	C742.975037,329.227417 742.130554,333.869904 738.022766,337.011505 
	C742.029663,336.078857 742.955383,337.848999 743.571289,341.151428 
	C744.963867,348.618774 743.632996,355.860107 742.040527,362.939423 
	C739.170776,375.696289 739.406677,388.763611 737.350342,401.576935 
	C737.086548,403.220734 736.914856,404.896210 736.464294,406.490265 
	C733.902344,415.555695 732.823425,424.580750 735.345947,433.935760 
	C738.153687,444.348389 733.380554,454.332489 732.925842,464.579346 
	C732.421204,475.949646 729.174500,487.134308 732.126587,498.775757 
	C733.556335,504.413696 732.521423,510.693848 732.483032,516.682434 
	C732.438293,523.644958 728.846558,527.201294 722.032837,525.870544 
	C716.381042,524.766663 710.854736,522.632263 705.535950,520.343018 
	C701.750305,518.713623 701.085754,514.383545 704.264038,512.910889 
	C715.687439,507.617950 713.996155,497.557953 713.034058,488.397736 
	C711.979187,478.354462 709.412231,468.467133 707.448669,458.522827 
	C705.199524,447.131653 704.729492,435.657623 707.120117,424.306793 
	C710.148865,409.926727 709.174438,395.736389 705.469727,381.789581 
	C699.111145,357.851990 699.453003,333.973236 705.449463,310.183441 
	C709.090088,295.740021 710.230042,281.040375 711.590759,266.340515 
	C712.382690,257.785980 710.518311,249.534393 707.593994,240.699097 
	C704.540283,245.256943 702.709167,249.609528 702.349731,254.146500 
	C701.129028,269.555969 695.470520,283.151398 686.790405,295.741394 
	C681.874756,302.871338 679.614868,310.566254 679.704102,319.611023 
	C679.779236,327.231079 677.364563,335.055786 674.980042,342.443909 
	C673.792358,346.123932 669.199524,347.502502 665.524292,349.058044 
	C660.309082,351.265381 657.621094,346.993347 654.248169,344.692657 
	C652.597534,343.566803 652.868652,341.469086 653.110779,339.593628 
	C653.534363,336.314056 655.101929,333.213745 654.709412,329.825165 
	C648.515442,327.459656 648.537415,327.471252 651.674622,321.524658 
	C654.014893,317.088684 656.826660,313.170380 660.565979,309.637543 
	C666.460938,304.068024 666.891052,295.902100 668.620178,288.524902 
	C670.402283,280.921844 670.493958,272.986755 672.728699,265.443268 
	C673.390625,263.208801 673.814026,260.848572 674.829651,258.783417 
	C679.782104,248.712708 683.500916,238.351746 684.216431,226.994186 
	C684.445129,223.363342 686.385498,220.046402 688.670288,217.172348 
	C679.954102,204.723343 690.829773,182.912170 705.861938,180.445267 
	C713.955688,179.117020 721.845154,175.279083 728.644958,170.220413 
	C731.918518,167.785049 731.702454,157.210815 728.263306,152.331421 
	C724.277039,146.675934 721.369324,141.242950 726.211426,134.651138 
	C726.719360,133.959717 726.517517,132.713577 726.563049,131.721039 
	C727.068787,120.711700 734.100403,113.339668 744.544678,112.889091 
	C754.760864,112.448357 762.705322,119.408661 764.156738,130.309433 
	C764.529846,133.111679 765.078003,135.642746 766.301880,138.305603 
	C768.174805,142.380341 766.454407,146.590073 763.812073,149.890671 
	C760.922791,153.499802 760.042236,157.672836 759.491760,161.918076 
	C758.865662,166.746262 760.404419,170.817657 765.328552,172.871719 
	C769.475586,174.601639 773.655884,176.254059 777.777466,178.042252 
	C780.723450,179.320389 780.690918,179.395325 780.460815,182.744019 
	C785.717957,179.937836 791.980469,181.356201 797.134705,186.520264 
	C803.722778,193.120880 806.546265,207.133484 802.784424,215.821426 
	C802.170288,217.239746 802.575317,217.971390 803.142822,218.937408 
	C806.795288,225.154816 807.825012,232.051376 808.235168,239.070526 
	C808.354553,241.114227 808.533142,243.168549 809.558044,244.850510 
	C817.856445,258.468475 819.801086,273.873291 822.238586,289.153229 
	C823.213074,295.261841 824.842224,301.185120 827.823853,307.050537 
M748.261597,301.971375 
	C744.893555,301.621246 746.454834,298.260925 744.832642,296.261505 
	C744.104492,298.910004 744.948669,302.052521 741.458679,302.634033 
	C742.795105,305.866974 743.950439,308.661835 745.487488,312.380127 
	C746.891418,308.207245 747.937195,305.098816 749.517212,301.589600 
	C751.195068,296.308868 758.784241,296.064331 759.790588,289.611084 
	C754.156799,292.387482 751.307495,296.962982 748.261597,301.971375 
M753.545166,117.812485 
	C743.217529,113.002350 732.337280,117.094322 729.842651,127.139755 
	C727.491211,136.608521 730.619568,145.716660 732.180054,155.105331 
	C742.970764,149.744278 742.970764,149.744278 745.353821,154.572418 
	C747.077576,150.042297 748.518250,149.397842 752.002380,152.166870 
	C753.756775,153.561218 756.294006,153.475357 757.706604,156.853912 
	C759.049011,149.741745 760.177612,143.911011 761.232849,138.067017 
	C761.496643,136.605698 761.616089,135.103516 761.644653,133.617081 
	C761.767822,127.225197 759.624451,121.908791 753.545166,117.812485 
M725.533936,337.809143 
	C737.076233,336.241486 741.876465,331.766693 742.328064,321.134186 
	C742.552002,315.861542 741.932861,310.527740 739.654541,305.522797 
	C735.407104,296.192047 730.303467,294.971222 722.815979,302.083618 
	C713.872742,310.578827 712.756836,321.091888 715.742737,332.476257 
	C717.478943,339.095825 717.873474,339.358337 725.533936,337.809143 
M755.912659,298.366821 
	C751.240417,302.881073 749.104858,308.677948 748.477783,314.878082 
	C747.134766,328.156860 750.998535,334.550964 761.434570,337.158417 
	C764.010681,337.802094 766.658875,338.161682 769.279175,338.622314 
	C771.080261,338.938934 772.428467,338.467743 773.456787,336.742767 
	C779.617188,326.408356 775.643250,307.250427 765.741699,300.424713 
	C763.028564,298.554413 760.179199,296.580353 755.912659,298.366821 
M753.287231,242.835281 
	C749.766968,249.212402 751.553223,254.760880 756.277161,259.548431 
	C759.799927,263.118622 761.850220,267.303558 763.043518,272.064240 
	C763.338196,273.240143 763.076904,274.801697 764.685364,275.368164 
	C774.202637,261.940308 780.458374,233.876175 779.924744,225.751190 
	C774.387390,226.228607 768.844421,227.937836 763.277405,225.694061 
	C761.465149,224.963669 760.783386,226.787964 760.142639,228.156998 
	C757.962036,232.815857 755.772217,237.470398 753.287231,242.835281 
M716.234131,226.639847 
	C714.315491,226.288162 712.396790,225.936493 709.503052,225.406082 
	C712.995605,243.224930 716.042175,260.438385 726.778381,276.921539 
	C726.813354,267.633209 731.994568,262.444031 736.368164,256.842896 
	C739.609314,252.692184 739.692993,248.331223 737.601990,243.736969 
	C735.467834,239.047913 733.187805,234.421677 731.182495,229.678772 
	C729.830750,226.481613 728.184753,224.760208 724.407227,226.239334 
	C722.110046,227.138809 719.553650,227.393219 716.234131,226.639847 
M753.743835,227.203674 
	C757.193176,219.010147 758.932617,210.359543 760.156128,201.633347 
	C761.391724,192.820236 765.433960,186.368973 773.897949,183.010269 
	C774.773438,182.662888 775.817566,182.324783 776.010437,180.519028 
	C770.356506,177.956024 764.112976,176.095261 758.948975,172.123688 
	C753.381897,167.842163 752.003296,161.290665 750.306763,154.702469 
	C747.849487,156.515259 748.439819,158.304626 748.378296,159.888870 
	C748.173828,165.153503 749.942810,170.043213 751.465393,174.951996 
	C752.383057,177.910553 752.769409,180.811096 751.706421,183.749649 
	C745.387878,201.217484 749.705811,219.259125 749.184570,237.214874 
	C750.610962,234.115662 752.037292,231.016434 753.743835,227.203674 
M741.003906,190.622955 
	C737.935913,183.827454 737.251465,177.105835 740.273254,169.931946 
	C742.296387,165.129089 742.304504,159.848923 740.550049,154.272842 
	C739.460510,170.620880 726.913635,175.670090 714.351868,180.725693 
	C715.301819,181.761902 715.563843,182.294373 715.973389,182.458282 
	C725.824524,186.400681 729.425781,194.225662 730.735046,204.245499 
	C732.193359,215.405701 735.380310,226.211197 741.309875,236.092972 
	C741.647278,221.171158 742.191406,206.297104 741.003906,190.622955 
M793.866699,187.602875 
	C784.530823,181.379944 786.326599,183.549911 774.498718,191.328888 
	C785.315796,195.638046 789.536560,207.738052 800.611389,211.418335 
	C803.165527,203.851868 800.642578,194.580719 793.866699,187.602875 
M707.509827,197.000290 
	C709.603149,194.453171 713.244141,193.666611 715.020752,190.667236 
	C713.536377,188.443390 710.850159,188.227997 709.269165,186.585114 
	C705.289856,182.450165 701.528687,184.058411 697.838562,186.867004 
	C690.877136,192.165421 687.512573,202.719101 689.956909,211.612946 
	C696.957031,208.442719 702.075134,203.084106 707.509827,197.000290 
M772.360413,428.636871 
	C772.372742,432.949066 772.100098,437.287201 772.489807,441.565002 
	C772.788696,444.846100 772.663757,449.729645 776.923218,449.802429 
	C780.706238,449.867065 781.264648,445.164856 781.598389,442.006317 
	C782.661499,431.944580 780.976868,422.191772 777.206482,412.819153 
	C776.851257,411.936035 776.829956,410.343323 774.815796,410.676758 
	C773.244324,416.196594 772.352722,421.866913 772.360413,428.636871 
M716.153442,411.430573 
	C714.029846,411.394775 713.974426,411.374420 713.254944,413.334106 
	C710.430969,421.026581 709.432800,429.113525 708.608582,437.173431 
	C708.243103,440.747528 709.148132,444.478912 711.110657,447.665466 
	C712.912842,450.591614 715.277954,450.490601 716.546326,447.345551 
	C717.525391,444.917725 718.649231,442.165588 718.396362,439.691803 
	C717.454590,430.480377 719.098694,421.084747 716.153442,411.430573 
M772.591064,385.796021 
	C773.892883,390.638519 774.225708,395.827454 777.928223,400.845032 
	C777.525513,386.120941 778.301208,372.288788 776.550598,358.559540 
	C775.943054,353.794373 774.851929,348.867188 769.143860,345.322052 
	C770.764343,359.202423 771.857666,372.042084 772.591064,385.796021 
M748.512939,291.085480 
	C748.757629,292.021240 748.697876,293.095154 749.712891,293.714874 
	C751.215393,293.496704 751.511292,291.723511 752.652283,291.240387 
	C762.217773,287.189758 760.895386,280.751068 757.625305,272.881805 
	C755.543762,267.872498 752.606934,264.034210 748.478394,259.676422 
	C748.478394,270.551819 748.478394,280.481384 748.512939,291.085480 
M758.153381,435.509430 
	C757.075012,441.920227 757.257507,448.135437 761.116028,455.158997 
	C770.274658,441.054810 766.249878,427.039154 765.021667,413.235992 
	C760.946594,419.867523 759.166931,427.120758 758.153381,435.509430 
M724.398438,419.095123 
	C724.433838,427.240173 723.422607,435.406281 724.662842,443.524017 
	C725.275452,447.533844 726.152283,451.536346 730.573853,454.509583 
	C735.142517,439.623047 732.155701,426.399200 726.157288,412.771332 
	C724.679382,414.973419 724.572083,416.621002 724.398438,419.095123 
M767.749207,492.341522 
	C769.399963,480.538788 772.204102,468.969727 775.330994,457.423584 
	C773.159424,456.115723 771.379761,455.043884 769.689209,454.025757 
	C765.410828,457.934265 762.317566,461.755737 763.314331,467.943481 
	C765.052429,478.733612 767.072937,489.529755 766.755920,500.557892 
	C767.038940,498.099792 767.322021,495.641724 767.749207,492.341522 
M729.418091,282.411865 
	C728.869507,283.515045 728.449829,284.746246 729.752869,285.492218 
	C733.983521,287.914124 737.765015,290.906097 741.271118,295.255737 
	C741.271118,283.225006 741.271118,272.241943 741.271118,260.718994 
	C737.077332,264.407288 734.211975,268.122437 733.254944,273.085114 
	C732.651550,276.214386 731.336670,279.072845 729.418091,282.411865 
M722.386353,490.289795 
	C723.055786,495.663269 723.725220,501.036774 724.394653,506.410248 
	C723.509277,495.064789 724.829285,483.925873 726.419495,472.724884 
	C727.109253,467.866302 729.784607,462.213654 724.536194,457.849792 
	C722.913818,456.500885 722.353516,453.571960 719.047058,455.147858 
	C715.886841,456.653961 715.872620,458.852325 716.596375,461.651489 
	C718.962769,470.803406 721.407471,479.942657 722.386353,490.289795 
M717.538391,385.104950 
	C718.637146,372.420990 719.735901,359.737030 720.834595,347.053101 
	C720.044434,346.984192 719.254211,346.915314 718.463989,346.846436 
	C709.573853,363.413147 714.876526,381.618134 713.481445,399.076538 
	C716.117859,395.024872 716.407959,390.392548 717.538391,385.104950 
M723.394531,522.989624 
	C727.343323,522.949951 730.154602,521.205200 729.638550,517.034302 
	C728.937622,511.369415 729.536865,505.788757 729.667175,500.168823 
	C729.727356,497.575745 728.970947,495.144226 727.662048,492.887482 
	C727.304382,497.441345 727.234192,501.920349 727.327576,506.395905 
	C727.396423,509.695496 727.074097,512.555359 722.688965,512.220276 
	C723.108521,515.445435 725.323303,518.586243 721.811401,520.775818 
	C719.855042,521.995544 717.866455,521.688293 716.284241,519.566711 
	C717.964600,518.427917 720.808472,518.981750 720.593811,516.442444 
	C720.296570,512.926575 717.849304,510.676605 715.172180,508.745911 
	C712.667297,510.616852 710.410034,512.295593 708.160645,513.984863 
	C705.594543,515.911926 705.915344,517.824097 708.798096,518.613159 
	C713.447815,519.885925 717.641602,522.575684 723.394531,522.989624 
M718.078918,196.478378 
	C716.505615,197.387253 714.914673,198.267166 713.364868,199.214493 
	C712.199768,199.926666 710.813171,201.004822 711.624634,202.353912 
	C714.959534,207.897934 718.012573,213.748718 724.484619,218.064987 
	C726.305847,210.389984 725.027649,204.080048 722.572632,197.905151 
	C721.938721,196.310608 720.432678,195.964111 718.078918,196.478378 
M766.992920,216.859268 
	C771.065979,214.346756 773.752502,210.575470 776.221619,206.623642 
	C777.392334,204.749939 779.971985,202.974762 778.138184,200.526016 
	C776.218750,197.962875 773.165527,196.728165 770.038696,196.021393 
	C768.857666,195.754425 768.151184,196.726013 767.834961,197.656403 
	C765.708618,203.912338 763.738647,210.200928 766.992920,216.859268 
M765.729492,368.560608 
	C764.837585,361.972107 765.189026,355.183197 762.766663,348.027252 
	C756.950012,364.926636 765.555481,380.254578 764.631287,396.083954 
	C767.698059,387.268433 766.825073,378.375214 765.729492,368.560608 
M729.605103,355.057495 
	C729.166443,352.902588 728.727783,350.747650 728.289124,348.592743 
	C727.859314,348.630920 727.429565,348.669128 726.999756,348.707336 
	C725.620667,365.095306 722.145630,381.424103 726.060181,397.962982 
	C727.042908,391.214020 725.909424,384.325073 727.484802,377.672852 
	C729.185181,370.492828 730.067017,363.298706 729.605103,355.057495 
M775.345886,285.348480 
	C778.764404,283.700623 777.721130,280.511597 777.514282,277.964935 
	C777.104614,272.920471 776.144409,267.920715 775.344421,262.440674 
	C774.742554,263.189941 774.283997,263.607330 774.013062,264.123260 
	C772.325134,267.337952 770.530457,270.508087 769.048889,273.817352 
	C765.424133,281.913879 766.226318,283.458313 775.345886,285.348480 
M748.793518,175.651306 
	C747.170837,171.311813 745.988953,166.858643 745.570679,163.027664 
	C740.691833,173.538574 739.952271,184.815399 745.390137,195.780060 
	C746.091980,193.073715 746.837646,190.031219 747.674744,187.014099 
	C748.639648,183.536469 750.697937,180.216431 748.793518,175.651306 
M717.214722,265.524872 
	C716.443054,264.528168 716.329773,263.030701 714.617493,262.310120 
	C715.100403,270.023743 712.185303,277.428131 713.781982,285.019409 
	C723.490784,284.472626 725.118103,281.992340 721.449951,273.629456 
	C720.319092,271.051392 718.853699,268.620087 717.214722,265.524872 
M788.193542,219.229706 
	C787.696899,222.341339 787.239624,225.459885 786.695129,228.563126 
	C785.637268,234.592529 787.824829,239.692352 790.996948,244.575089 
	C792.771362,234.589874 794.407715,224.696136 788.999878,214.365784 
	C788.657837,216.312576 788.463440,217.419312 788.193542,219.229706 
M740.714661,351.291931 
	C740.629089,347.895264 741.342224,344.436127 740.016602,340.654816 
	C737.061890,341.703705 733.789185,341.780792 734.006104,346.038300 
	C734.397644,353.724243 735.735596,361.261322 737.526855,369.826965 
	C738.972107,363.272217 740.355774,357.838867 740.714661,351.291931 
M755.187073,355.872772 
	C755.666626,353.428253 756.135559,350.981628 756.628113,348.539703 
	C757.588318,343.778687 755.770203,341.238525 750.326233,341.072479 
	C748.607971,349.731873 750.557190,357.954834 752.221741,367.221863 
	C754.703003,363.331207 754.556213,359.945251 755.187073,355.872772 
M701.939575,216.575531 
	C701.841614,216.091171 701.743591,215.606812 701.580811,214.802048 
	C696.028687,224.503693 698.127380,234.439804 698.928101,244.533707 
	C700.981567,243.869995 701.108154,242.394623 701.662231,241.248123 
	C705.502808,233.300400 702.991272,225.241714 701.939575,216.575531 
M765.781860,293.989136 
	C771.215881,296.514221 774.419128,301.469666 778.375732,306.185120 
	C780.652771,300.915070 780.105530,296.534332 776.687134,292.729370 
	C773.922546,289.652069 770.199585,289.557983 766.495605,290.524506 
	C765.137939,290.878784 762.556335,291.367004 765.781860,293.989136 
M726.652832,292.325745 
	C722.801147,289.353668 717.561035,289.452606 714.101440,292.562714 
	C710.670044,295.647400 710.033691,301.208679 713.037964,306.103455 
	C715.767639,299.649414 720.875305,296.016754 726.652832,292.325745 
M796.261597,276.184723 
	C798.932068,281.986267 801.751831,287.697662 806.769287,293.703918 
	C803.690918,282.718750 802.288025,272.497070 793.532288,264.353210 
	C793.877625,268.940247 794.603882,272.275146 796.261597,276.184723 
M770.679138,517.849060 
	C775.759399,519.600159 780.832397,521.290466 785.630798,515.989197 
	C782.251160,513.424438 779.148132,511.069702 775.801208,508.529877 
	C772.919861,510.873962 770.817200,513.473450 770.679138,517.849060 
M696.829346,267.976959 
	C696.908936,267.024933 696.988586,266.072906 697.155029,264.083038 
	C689.372437,271.847992 687.310425,280.958954 685.622559,290.253418 
	C691.005676,283.909760 694.773132,276.757629 696.829346,267.976959 
M762.098938,520.291199 
	C763.838867,522.639587 765.953857,523.525574 769.234070,522.179138 
	C766.847351,519.123169 766.924377,516.077393 768.086365,512.985229 
	C758.248413,508.632477 765.728271,500.196991 763.073975,493.840851 
	C758.857910,502.405121 763.366516,511.186646 762.098938,520.291199 
M809.004517,276.973267 
	C809.156677,282.136261 810.054382,287.121918 812.648926,292.319916 
	C812.744446,283.954529 812.711853,276.207886 809.875732,267.896942 
	C808.446167,271.226135 808.189819,273.646667 809.004517,276.973267 
M743.919556,245.444321 
	C743.144958,245.531998 742.370361,245.619675 741.754333,245.689392 
	C740.549744,251.107101 745.640808,254.989639 745.064514,258.097656 
	C744.398865,255.288284 749.237000,251.686005 748.380615,246.457291 
	C746.738586,246.925156 746.418945,243.632767 743.919556,245.444321 
M803.178650,234.722107 
	C803.449768,235.300949 803.584229,236.009644 804.431885,236.040375 
	C804.892151,227.393326 802.452576,221.069885 797.483704,218.393356 
	C797.464661,224.365906 799.870117,229.374039 803.178650,234.722107 
M773.447266,218.337555 
	C772.499512,219.876465 772.931824,220.386871 774.695312,220.179138 
	C781.192566,219.413849 783.650696,215.704910 782.094543,208.457916 
	C779.247925,211.699234 776.539734,214.782867 773.447266,218.337555 
M710.264771,210.579514 
	C709.604980,209.921173 709.270081,208.804672 708.018188,208.971024 
	C706.710144,216.344284 709.467407,219.701294 717.135071,219.365753 
	C714.834656,216.446671 712.731262,213.777664 710.264771,210.579514 
M687.881897,225.481430 
	C687.079346,228.415054 685.856934,231.303162 686.719910,235.144104 
	C690.586670,230.093399 692.505554,225.158524 692.611877,219.034286 
	C689.435913,220.288315 688.913086,222.620132 687.881897,225.481430 
M725.139099,220.792877 
	C721.668762,222.975189 717.990784,224.009186 713.839417,222.770554 
	C715.937866,224.035400 718.202026,224.029190 720.428711,223.951706 
	C729.281921,223.643646 730.966370,221.642883 729.583191,213.182816 
	C729.364868,211.847473 728.999146,210.536224 728.438416,208.044052 
	C728.168213,213.137634 729.335754,217.333893 725.139099,220.792877 
M680.634155,284.781586 
	C681.080383,280.054718 682.641052,275.321930 680.604309,269.313171 
	C678.010254,276.590179 678.541931,282.841888 679.190735,289.186768 
	C679.632324,287.967163 680.073853,286.747589 680.634155,284.781586 
M822.505066,321.055573 
	C821.105713,329.549255 828.589355,335.329773 829.092041,343.244659 
	C828.907532,335.363892 826.266052,328.200012 822.505066,321.055573 
M665.186279,326.857086 
	C661.905273,332.410248 662.317322,338.828522 660.861572,344.822083 
	C662.559753,337.364777 666.977234,330.738251 667.217651,322.803375 
	C666.638062,323.942566 666.058472,325.081787 665.186279,326.857086 
M667.160217,343.966980 
	C667.582031,336.753418 673.707764,330.702881 671.763794,323.005157 
	C669.239075,329.864288 667.539795,336.898926 667.160217,343.966980 
M762.056030,215.056915 
	C761.960266,214.413879 761.864502,213.770844 761.544983,211.624786 
	C760.533142,215.783386 759.865051,218.529526 759.071350,221.791733 
	C762.172974,221.539993 764.172485,223.427933 766.646912,223.624619 
	C768.952148,223.807861 771.283447,223.663757 773.603333,223.663757 
	C766.561646,223.182129 763.654175,221.218597 762.056030,215.056915 
M778.685181,332.746124 
	C778.783508,331.462158 778.881775,330.178192 779.089783,327.461090 
	C777.370300,334.027069 777.245300,339.763885 771.295654,342.985291 
	C773.150696,343.789459 773.783813,345.808868 776.228210,346.113800 
	C777.039429,341.852844 777.833313,337.682617 778.685181,332.746124 
M832.403198,330.038177 
	C832.303528,325.451965 828.094604,323.793884 825.999756,320.623138 
	C827.886841,327.218170 832.550964,332.437225 834.654297,338.920868 
	C833.973877,336.213654 833.293396,333.506439 832.403198,330.038177 
M822.669250,335.792053 
	C821.553040,331.002136 819.823181,326.368408 819.094666,321.473022 
	C817.051697,329.682526 823.058044,336.266144 823.206604,344.027954 
	C824.078186,341.422882 822.828796,339.084106 822.669250,335.792053 
M779.616882,341.961365 
	C779.339966,345.318085 777.732544,348.537598 778.919495,352.065186 
	C778.685791,344.376007 782.621399,337.304047 783.216675,329.741730 
	C782.720642,329.666992 782.224609,329.592285 781.728516,329.517578 
	C781.085388,333.388184 780.442261,337.258759 779.616882,341.961365 
M713.848816,344.418457 
	C714.058411,345.168976 714.268005,345.919495 714.630981,347.219177 
	C716.488098,345.485199 717.976990,344.095123 719.738831,342.450104 
	C714.920471,341.332977 714.468628,337.113983 712.195984,332.934570 
	C712.817627,337.308350 713.277710,340.545288 713.848816,344.418457 
M718.998413,502.971588 
	C718.448242,500.017273 719.292480,496.797943 716.730957,493.037048 
	C717.328552,498.653778 713.034485,503.733215 719.369141,508.143982 
	C719.233032,506.259094 719.141907,504.996490 718.998413,502.971588 
M774.432678,496.277313 
	C774.199280,495.715851 774.301514,494.927429 773.124390,494.742432 
	C772.310608,498.977631 770.867920,503.124146 771.789856,507.950256 
	C776.685669,504.898987 774.441711,500.635071 774.432678,496.277313 
M799.950012,262.412628 
	C800.748352,264.166077 801.771912,265.688873 803.900940,266.587341 
	C804.792786,262.990356 805.544861,259.776398 805.273987,255.525833 
	C803.164429,258.087128 801.621887,259.959961 799.950012,262.412628 
M686.360413,264.402649 
	C686.601501,265.149261 686.842651,265.895874 687.118835,266.751129 
	C691.882507,262.840820 691.818726,262.408234 685.470215,256.125641 
	C685.775635,258.937469 686.034546,261.321014 686.360413,264.402649 
M796.954834,259.487396 
	C798.486938,255.304169 798.243042,255.023727 791.394226,253.082336 
	C790.963318,256.819550 793.452576,258.290314 796.954834,259.487396 
M784.086304,318.876465 
	C783.599548,318.163574 784.212769,316.809814 782.731506,316.575317 
	C781.416626,321.530182 783.437683,325.777618 785.868652,329.987457 
	C785.338806,326.516602 784.808960,323.045715 784.086304,318.876465 
M799.820190,250.712494 
	C801.378906,246.324097 801.002441,242.200684 798.202759,238.403854 
	C798.605835,242.598389 797.186829,246.971237 799.820190,250.712494 
M695.550476,258.841248 
	C696.994934,257.533051 699.553833,256.819244 698.168762,253.879883 
	C697.029114,253.879883 695.828735,253.607620 694.824768,253.935944 
	C692.661499,254.643417 693.026550,256.877197 692.850891,258.474335 
	C692.693542,259.905029 694.065674,259.508087 695.550476,258.841248 
M834.291077,319.092072 
	C832.669312,315.479340 829.880859,313.055939 826.404480,311.337250 
	C829.890747,315.766876 833.376953,320.196503 836.863159,324.626160 
	C837.031128,324.506500 837.199097,324.386841 837.367004,324.267212 
	C836.457092,322.744598 835.547241,321.221985 834.291077,319.092072 
M690.413940,243.304047 
	C690.147949,245.692917 689.729980,248.101639 691.278503,251.004822 
	C693.362427,246.777756 692.467407,243.103699 692.068726,239.463821 
	C691.584167,240.513214 691.099609,241.562607 690.413940,243.304047 
M674.910522,321.515717 
	C675.100952,322.669983 675.291443,323.824249 675.481873,324.978516 
	C676.835754,321.438202 677.393127,317.997253 675.994507,313.837402 
	C673.830688,316.373932 674.494385,318.620331 674.910522,321.515717 
M777.990723,313.160065 
	C778.808960,316.641968 779.426331,320.153137 779.540039,323.731171 
	C779.915039,319.711517 780.290039,315.691833 780.729492,310.981567 
	C779.472473,311.781921 778.824768,312.194336 777.990723,313.160065 
M658.198181,331.318115 
	C657.885132,332.571503 657.046814,333.736572 657.818054,335.974335 
	C658.444092,331.261658 662.020630,328.512695 662.538818,324.136688 
	C658.480652,325.037109 659.182556,328.259888 658.198181,331.318115 
M730.399109,290.069977 
	C730.771606,291.457092 731.144104,292.844208 731.541748,294.325043 
	C732.986023,294.661163 734.464844,295.207092 736.291016,294.692657 
	C734.809692,292.261932 733.091797,290.621521 730.399109,290.069977 
M766.214722,194.110626 
	C769.586975,193.232010 770.773010,190.314880 772.574768,187.045441 
	C769.299622,189.087372 765.962646,190.129715 766.214722,194.110626 
M711.932434,353.980743 
	C713.744995,349.450378 710.547180,345.524933 710.013184,341.270477 
	C710.487793,345.499115 710.962463,349.727783 711.932434,353.980743 
M707.208862,349.655670 
	C706.625916,355.962341 706.972778,362.250580 707.573975,368.535522 
	C707.634338,362.136749 708.354126,355.739380 707.208862,349.655670 
M706.444336,319.604095 
	C706.089111,322.320129 705.733887,325.036133 705.378723,327.752167 
	C707.826782,324.442383 708.547241,320.951019 707.442261,316.473114 
	C707.005920,317.759613 706.801880,318.361267 706.444336,319.604095 
M725.601868,197.612320 
	C725.872192,197.871674 726.095337,198.600739 726.483582,197.716064 
	C726.539673,197.588348 726.475769,197.392090 726.430786,197.238235 
	C725.407837,193.737366 723.940491,190.552063 720.094543,188.505508 
	C720.625488,190.099579 719.679749,191.825027 721.708679,192.378632 
	C724.164429,193.048691 724.781433,195.081482 725.601868,197.612320 
M815.843689,316.585571 
	C815.579285,315.838989 814.878296,314.661102 814.463501,315.945465 
	C813.697327,318.317902 813.622253,320.924286 815.006714,323.982300 
	C816.386841,321.394745 815.752869,319.278778 815.843689,316.585571 
M709.963318,313.184021 
	C710.322754,314.758362 710.682129,316.332733 711.125122,318.273376 
	C712.838806,312.264679 712.838806,312.264679 709.378418,310.609161 
	C709.531860,311.347748 709.661926,311.973969 709.963318,313.184021 
z"/>
<path fill="#000000" opacity="1.000000" stroke="none" 
	d="
M318.111572,159.293396 
	C315.284607,159.260910 314.512146,157.401947 313.485168,155.383682 
	C317.017090,152.775314 320.454681,153.827103 324.187286,155.098251 
	C322.862701,157.722153 321.416656,159.520950 318.111572,159.293396 
z"/>
<path fill="#000000" opacity="1.000000" stroke="none" 
	d="
M319.650848,150.613480 
	C317.206268,150.871338 315.461090,150.442810 314.372070,147.797623 
	C317.329285,147.797623 319.853943,147.797623 322.565460,147.797623 
	C322.935425,149.891586 321.356445,150.113800 319.650848,150.613480 
z"/>
</svg>